<svg xmlns="http://www.w3.org/2000/svg" viewBox="0 0 40 40" width="32" height="32">
  <path d="M20 37V20" stroke="#7B5EC4" stroke-width="2.5" stroke-linecap="round" fill="none"/>
  <path d="M20 28C16 25 10 23 8 18" stroke="#7B5EC4" stroke-width="2" stroke-linecap="round" fill="none"/>
  <path d="M20 28C24 25 30 23 32 18" stroke="#7B5EC4" stroke-width="2" stroke-linecap="round" fill="none"/>
  <path d="M20 22C16 19 13 14 12 10" stroke="#7B5EC4" stroke-width="1.5" stroke-linecap="round" fill="none"/>
  <path d="M20 22C24 19 27 14 28 10" stroke="#7B5EC4" stroke-width="1.5" stroke-linecap="round" fill="none"/>
  
  <polygon points="20,4 22.2,5.7 22.2,9.3 20,11 17.8,9.3 17.8,5.7" fill="#5B3EA6"/>
  <polygon points="8,14 9.5,15.2 9.5,17.8 8,19 6.5,17.8 6.5,15.2" fill="#0B9484"/>
  <polygon points="32,14 33.5,15.2 33.5,17.8 32,19 30.5,17.8 30.5,15.2" fill="#0B9484"/>
  <circle cx="20" cy="16" r="2.5" fill="#C44D30"/>
</svg>